<?xml version="1.0" encoding="iso-8859-1"?>
<!-- Generator: Adobe Illustrator 19.0.0, SVG Export Plug-In . SVG Version: 6.00 Build 0)  -->
<svg version="1.1" id="Capa_1" xmlns="http://www.w3.org/2000/svg" xmlns:xlink="http://www.w3.org/1999/xlink" x="0px" y="0px"
	 viewBox="0 0 1709 505" style="enable-background:new 35 -35 1674 470;" xml:space="preserve">
<g id="XMLID_130_">
	<g id="XMLID_1_">
		<path id="XMLID_2_" style="fill:none;" d="M144.929,90.457c2.125,10.677,5.029,21.861,8.641,33.406
			c20.1-4.545,41.817-7.983,64.543-10.205c7.822-11.787,15.903-23.093,24.221-33.798c1.478-1.903,3.693-2.898,5.929-2.898
			c1.609,0,3.229,0.515,4.594,1.577c3.271,2.541,3.863,7.253,1.321,10.523c-5.742,7.391-11.362,15.093-16.872,23.029
			c10.227-0.677,20.61-1.12,31.106-1.307c3.786-0.067,7.571-0.101,11.35-0.101c6.641,0,13.263,0.103,19.834,0.305
			c-21.946-29.37-45.127-54.389-67.713-72.822c-24.225-19.772-45.723-30.184-61.521-30.183c-5.242,0-9.858,1.147-13.736,3.479
			C141.061,20.823,136.797,49.615,144.929,90.457z"/>
		<path id="XMLID_4_" style="fill:none;" d="M169.271,201.794c-10.167-20.433-18.769-40.657-25.576-60.097
			c-11.704,3.063-22.724,6.536-32.903,10.399c-38.935,14.775-61.079,33.663-60.756,51.822c0.411,23.032,37.782,45.824,95.822,58.821
			C151.967,243.076,159.841,222.568,169.271,201.794z"/>
		<path id="XMLID_5_" style="fill:none;" d="M302.741,287.904c-10.241,0.679-20.64,1.122-31.152,1.31
			c-3.914,0.07-7.81,0.105-11.694,0.105c-27.708,0-54.604-1.774-80.105-5.288c-0.944-0.131-1.823-0.431-2.609-0.866
			c-2.632-1.458-4.233-4.428-3.796-7.587c0.517-3.757,3.733-6.478,7.421-6.477c0.341,0,0.685,0.023,1.032,0.071
			c9.282,1.279,18.761,2.317,28.399,3.12c-5.736-8.569-11.33-17.37-16.704-26.308c-5.418-9.01-10.559-18.06-15.417-27.102
			c-14.461,33.689-24.537,66.272-29.207,95.047c-6.672,41.105-1.387,69.728,14.5,78.527c3.643,2.018,7.872,3.01,12.607,3.01
			c15.914,0,37.525-11.213,61.651-32.378c8.188-7.182,16.426-15.294,24.623-24.198c-6.49-7.031-12.988-14.51-19.453-22.428
			c-2.619-3.209-2.143-7.932,1.066-10.553c1.393-1.137,3.071-1.691,4.739-1.691c2.175,0,4.332,0.941,5.813,2.757
			c5.942,7.277,11.907,14.157,17.848,20.619C282.638,315.493,292.845,302.181,302.741,287.904z"/>
		<path id="XMLID_6_" style="fill:none;" d="M348.056,243.231c-5.094,9.198-10.362,18.175-15.763,26.903
			c17.268-2.05,33.829-4.828,49.374-8.288c-5.313-15.013-11.744-30.525-19.168-46.25
			C357.965,224.805,353.15,234.033,348.056,243.231z"/>
		<path id="XMLID_7_" style="fill:none;" d="M346.466,154.017c5.418,9.01,10.559,18.06,15.417,27.102
			c6.853-15.962,12.721-31.677,17.495-46.855c-8.631-1.608-17.626-3.014-26.948-4.19c-4.11-0.518-7.021-4.269-6.502-8.379
			c0.478-3.791,3.708-6.562,7.432-6.562c0.313,0,0.629,0.02,0.948,0.06c10.143,1.279,19.93,2.82,29.333,4.592
			c3.201-11.674,5.706-22.96,7.451-33.711c6.672-41.105,1.387-69.728-14.5-78.527c-3.594-1.99-7.767-2.959-12.43-2.959
			c-21.484,0.001-53.331,20.568-86.425,56.53C301.762,87.119,325.348,118.898,346.466,154.017z"/>
		<path id="XMLID_8_" style="fill:none;" d="M177.502,184.404c4.534-9.21,9.348-18.437,14.442-27.635
			c5.096-9.201,10.373-18.162,15.785-26.906c-17.276,2.05-33.843,4.83-49.396,8.291
			C163.647,153.167,170.078,168.679,177.502,184.404z"/>
		<path id="XMLID_9_" style="fill:none;" d="M226.694,127.934c-7.485,11.584-14.717,23.626-21.628,36.103
			c-6.915,12.486-13.308,25.017-19.142,37.461c6.272,12.229,13.107,24.524,20.462,36.755c7.285,12.113,14.975,23.969,22.883,35.303
			c10.108,0.506,20.365,0.762,30.744,0.762c3.754,0,7.524-0.033,11.308-0.101c14.27-0.255,28.318-0.984,42.012-2.154
			c7.455-11.548,14.685-23.614,21.6-36.1c6.915-12.486,13.308-25.017,19.142-37.461c-6.272-12.229-13.107-24.524-20.462-36.755
			c-7.353-12.227-15.005-24.024-22.863-35.295c-10.168-0.509-20.517-0.767-30.92-0.767c-3.712,0-7.432,0.033-11.152,0.099
			C254.417,126.037,240.38,126.765,226.694,127.934z"/>
		<path id="XMLID_10_" style="fill:none;" d="M394.134,137.29c-6.108,19.654-13.979,40.153-23.404,60.916
			c10.167,20.433,18.769,40.657,25.576,60.097c11.703-3.063,22.724-6.536,32.903-10.399c38.935-14.775,61.079-33.663,60.756-51.822
			C489.547,172.638,451.773,150.245,394.134,137.29z"/>
		<path id="XMLID_11_" style="fill:none;" d="M395.071,309.542c-2.126-10.677-5.03-21.861-8.641-33.407
			c-20.09,4.544-41.797,7.981-64.512,10.203c-12.6,19.005-25.801,36.551-39.22,52.156c33.521,33.863,65.385,53.513,87.003,53.513
			c5.186,0,9.786-1.132,13.674-3.47C398.939,379.176,403.203,350.385,395.071,309.542z"/>
		<g id="XMLID_25_">
			<g id="XMLID_325_">
				<path id="XMLID_326_" style="fill:#333132;" d="M502.962,195.85c-0.335-18.816-15.503-36.246-43.863-50.403
					c-16.662-8.317-37.249-15.273-61.189-20.675l-2.038-0.46l0.548-2.016c3.23-11.888,5.754-23.375,7.502-34.141
					c7.715-47.53,0.245-80.197-21.034-91.982c-5.506-3.049-11.811-4.596-18.74-4.596c-10.758,0-22.897,3.657-36.081,10.869
					c-18.264,9.99-38.753,26.995-59.252,49.177l-1.417,1.533l-1.471-1.482c-8.682-8.745-17.372-16.677-25.827-23.578
					c-26.499-21.628-50.694-33.061-69.97-33.063c-7.572-0.001-14.37,1.778-20.206,5.288c-20.846,12.536-27.148,45.447-17.746,92.672
					c2.129,10.697,5.06,22.085,8.711,33.847l0.619,1.993l-2.018,0.533c-11.907,3.146-23.115,6.703-33.313,10.573
					c-45.019,17.084-69.574,39.887-69.141,64.207c0.287,16.107,11.643,31.44,32.842,44.34c1.565,0.953,3.212,1.909,4.896,2.841
					c17.291,9.576,40.569,17.836,67.318,23.885l2.036,0.461l-0.548,2.015c-3.23,11.883-5.756,23.374-7.505,34.154
					c-7.714,47.53-0.243,80.197,21.035,91.982c5.506,3.049,11.791,4.595,18.681,4.595c19.568,0,43.929-12.298,70.449-35.563
					c8.201-7.195,16.599-15.429,24.961-24.472l1.418-1.534l1.471,1.483c17.284,17.431,34.102,31.191,49.988,40.899
					c1.968,1.203,3.946,2.356,5.88,3.427c14.776,8.183,28.179,12.332,39.838,12.332c7.589,0,14.411-1.789,20.278-5.317
					c20.846-12.536,27.148-45.447,17.746-92.672c-2.133-10.703-5.064-22.091-8.713-33.847l-0.619-1.993l2.018-0.533
					c11.907-3.146,23.115-6.703,33.312-10.573C478.84,242.974,503.395,220.171,502.962,195.85z M276.263,59.762
					C309.7,23.428,341.737,2.588,364.159,2.587c5.047,0,9.555,1.08,13.399,3.209c16.669,9.232,22.321,38.608,15.506,80.597
					c-1.737,10.701-4.259,22.113-7.496,33.919l-0.487,1.778l-1.812-0.341c-9.462-1.783-19.291-3.321-29.213-4.573
					c-0.231-0.029-0.466-0.044-0.697-0.044c-2.76,0-5.102,2.069-5.448,4.812c-0.38,3.009,1.76,5.766,4.768,6.145
					c9.192,1.159,18.298,2.575,27.064,4.208l2.219,0.413l-0.677,2.153c-4.783,15.21-10.693,31.038-17.565,47.044l-1.636,3.812
					l-1.963-3.654c-4.882-9.087-10.053-18.177-15.369-27.018c-20.792-34.577-44.474-66.588-68.487-92.574l-1.252-1.354
					L276.263,59.762z M184.114,200.649c5.892-12.569,12.353-25.214,19.203-37.581c6.787-12.255,14.088-24.441,21.697-36.219
					l0.532-0.824l0.977-0.083c13.818-1.18,27.988-1.906,42.119-2.158c3.706-0.066,7.47-0.099,11.188-0.099
					c10.382,0,20.818,0.259,31.02,0.77l0.98,0.049l0.561,0.805c7.938,11.386,15.655,23.3,22.936,35.409
					c7.289,12.121,14.196,24.527,20.528,36.873l0.448,0.873l-0.417,0.889c-5.892,12.57-12.353,25.214-19.203,37.581
					c-6.849,12.367-14.14,24.551-21.669,36.216l-0.532,0.825l-0.978,0.083c-13.832,1.181-28.012,1.908-42.146,2.161
					c-3.774,0.067-7.591,0.101-11.344,0.101c-10.333,0-20.71-0.257-30.844-0.764l-0.979-0.049l-0.561-0.804
					c-7.96-11.408-15.684-23.324-22.957-35.417c-7.289-12.121-14.196-24.527-20.528-36.873l-0.448-0.873L184.114,200.649z
					 M179.296,185.287l-1.832,3.721l-1.771-3.751c-7.448-15.775-13.923-31.399-19.245-46.436l-0.753-2.129l2.204-0.491
					c15.58-3.468,32.266-6.268,49.595-8.325l4.12-0.489l-2.183,3.528c-5.558,8.979-10.852,18.003-15.736,26.822
					C188.705,166.744,183.861,176.013,179.296,185.287z M330.592,269.081c5.438-8.788,10.725-17.811,15.714-26.82
					c4.988-9.006,9.832-18.275,14.397-27.549l1.832-3.722l1.771,3.751c7.448,15.776,13.923,31.4,19.245,46.436l0.753,2.129
					l-2.204,0.491c-15.562,3.464-32.24,6.264-49.572,8.322l-4.119,0.489L330.592,269.081z M155.595,9.75
					c4.154-2.498,9.122-3.765,14.766-3.765c16.519-0.001,38.23,10.592,62.785,30.634c22.423,18.3,45.954,43.603,68.051,73.174
					l2.483,3.323l-4.147-0.127c-6.561-0.201-13.214-0.304-19.773-0.304c-3.766,0-7.573,0.034-11.314,0.1
					c-10.292,0.184-20.725,0.622-31.009,1.303l-4.143,0.274l2.368-3.411c5.703-8.214,11.401-15.991,16.936-23.115
					c0.902-1.16,1.298-2.602,1.115-4.059s-0.923-2.756-2.083-3.658c-0.973-0.757-2.137-1.157-3.367-1.157
					c-1.715,0-3.301,0.774-4.35,2.125c-8.116,10.445-16.235,21.775-24.134,33.677l-0.526,0.792l-0.946,0.093
					c-22.607,2.21-44.239,5.63-64.296,10.165l-1.799,0.407l-0.551-1.76c-3.654-11.68-6.579-22.989-8.693-33.613
					C134.662,49.129,139.264,19.57,155.595,9.75z M48.036,203.953c-0.339-19.052,22.276-38.635,62.046-53.728
					c10.135-3.846,21.273-7.367,33.106-10.464l1.784-0.467l0.61,1.741c6.793,19.399,15.366,39.541,25.479,59.867l0.424,0.852
					l-0.393,0.866c-9.382,20.669-17.229,41.095-23.325,60.712l-0.547,1.761l-1.8-0.403
					C85.781,251.335,48.466,228.062,48.036,203.953z M273.825,328.891l-1.466,1.716l-1.527-1.661
					c-6.022-6.549-12.053-13.516-17.925-20.708c-1.049-1.285-2.603-2.022-4.264-2.022c-1.279,0-2.481,0.429-3.474,1.24
					c-2.349,1.918-2.7,5.389-0.782,7.739c6.323,7.745,12.841,15.26,19.373,22.336l1.251,1.355l-1.249,1.356
					c-8.3,9.015-16.635,17.207-24.776,24.347c-24.515,21.506-46.29,32.874-62.97,32.874c-5.102,0-9.67-1.097-13.576-3.26
					c-16.669-9.232-22.321-38.609-15.506-80.597c4.636-28.566,14.783-61.595,29.343-95.515l1.636-3.812l1.963,3.654
					c4.882,9.088,10.053,18.178,15.369,27.018c5.292,8.8,10.894,17.624,16.652,26.226l2.31,3.451l-4.138-0.345
					c-9.713-0.81-19.304-1.863-28.506-3.132c-0.251-0.035-0.507-0.052-0.759-0.052c-2.728,0-5.067,2.042-5.44,4.75
					c-0.309,2.236,0.81,4.472,2.784,5.565c0.591,0.327,1.235,0.541,1.914,0.635c25.371,3.496,52.231,5.269,79.831,5.269
					c3.854,0,7.777-0.035,11.658-0.104c10.313-0.184,20.762-0.623,31.055-1.306l4.139-0.274l-2.363,3.409
					C294.455,303.369,284.173,316.776,273.825,328.891z M384.406,390.25c-4.145,2.492-9.092,3.756-14.704,3.756
					c-22.158,0-54.388-19.721-88.425-54.106l-1.298-1.312l1.203-1.399c13.389-15.569,26.534-33.05,39.07-51.957l0.526-0.793
					l0.947-0.093c22.607-2.211,44.228-5.631,64.265-10.163l1.799-0.407l0.551,1.761c3.653,11.681,6.578,22.99,8.694,33.614
					C405.339,350.87,400.736,380.429,384.406,390.25z M429.918,249.774c-10.135,3.846-21.273,7.366-33.106,10.464l-1.784,0.467
					l-0.61-1.741c-6.793-19.399-15.365-39.541-25.479-59.867l-0.424-0.852l0.393-0.866c9.377-20.659,17.222-41.075,23.315-60.683
					l0.548-1.763l1.801,0.405c28.729,6.457,52.926,15.346,69.974,25.705c17.721,10.768,27.202,22.872,27.419,35.003
					C492.304,215.099,469.689,234.682,429.918,249.774z"/>
			</g>
		</g>
		<g id="XMLID_36_">
			<g id="XMLID_37_">
				<path style="fill:#CB1100;" d="M187.738,25.919v33.558H221.3C220.511,41.309,205.906,26.704,187.738,25.919z"/>
			</g>
		</g>
		<g id="XMLID_38_">
			<g id="XMLID_39_">
				<path style="fill:#333132;" d="M189.9,62.535l22.195,22.195c5.419-5.908,8.835-13.654,9.204-22.195L189.9,62.535L189.9,62.535z"
					/>
			</g>
		</g>
		<g id="XMLID_40_">
			<g id="XMLID_41_">
				<path style="fill:#333132;" d="M185.13,62.089c-0.141-0.141-0.254-0.312-0.333-0.498c-0.076-0.186-0.116-0.385-0.116-0.584
					V25.919c-18.678,0.81-33.638,16.213-33.638,35.09c0,19.391,15.776,35.167,35.167,35.167c9.146,0,17.461-3.538,23.724-9.281
					L185.13,62.089z"/>
			</g>
		</g>
		<g id="XMLID_42_">
			<path style="fill:#333132;" d="M322.082,336.07c0,1.071,0.868,1.939,1.939,1.939s1.939-0.868,1.939-1.939v-15.155
				c0-0.784-0.472-1.491-1.197-1.791c-0.724-0.3-1.558-0.134-2.113,0.42l-4.913,4.913c-0.757,0.757-0.757,1.985,0,2.742
				c0.757,0.757,1.985,0.757,2.742,0l1.603-1.603V336.07z"/>
			<path style="fill:#333132;" d="M333.532,302.493l1.603-1.603v10.475c0,1.071,0.868,1.939,1.939,1.939s1.939-0.868,1.939-1.939
				V296.21c0-0.784-0.472-1.491-1.197-1.791c-0.724-0.3-1.558-0.134-2.113,0.42l-4.913,4.913c-0.757,0.757-0.757,1.985,0,2.742
				C331.548,303.251,332.775,303.251,333.532,302.493z"/>
			<path style="fill:#333132;" d="M355.643,319.124c-0.724-0.3-1.558-0.134-2.113,0.42l-4.913,4.913
				c-0.757,0.757-0.757,1.985,0,2.742c0.757,0.757,1.985,0.757,2.742,0l1.603-1.603v10.475c0,1.071,0.868,1.939,1.939,1.939
				s1.939-0.868,1.939-1.939v-15.155C356.84,320.131,356.368,319.424,355.643,319.124z"/>
			<path style="fill:#333132;" d="M347.217,342.985c-0.724-0.3-1.558-0.134-2.113,0.42l-4.913,4.913
				c-0.757,0.757-0.757,1.985,0,2.742c0.757,0.757,1.985,0.757,2.742,0l1.603-1.603v5.738c0,1.071,0.868,1.939,1.939,1.939
				s1.939-0.868,1.939-1.939v-10.418C348.413,343.991,347.941,343.285,347.217,342.985z"/>
			<path style="fill:#333132;" d="M343.93,331.346v-5.706c0-3.674-2.989-6.663-6.663-6.663h-0.095c-3.674,0-6.663,2.989-6.663,6.663
				v5.706c0,3.674,2.989,6.663,6.663,6.663h0.095C340.941,338.009,343.93,335.02,343.93,331.346z M340.053,331.346
				c0,1.536-1.25,2.786-2.786,2.786h-0.095c-1.536,0-2.786-1.25-2.786-2.786v-5.706c0-1.536,1.25-2.786,2.786-2.786h0.095
				c1.536,0,2.786,1.25,2.786,2.786V331.346z"/>
			<path style="fill:#333132;" d="M368.292,318.976h-0.095c-3.674,0-6.663,2.989-6.663,6.663v5.706c0,3.674,2.989,6.663,6.663,6.663
				h0.095c3.674,0,6.663-2.989,6.663-6.663v-5.706C374.955,321.965,371.966,318.976,368.292,318.976z M371.077,331.346
				c0,1.536-1.25,2.786-2.786,2.786h-0.095c-1.536,0-2.786-1.25-2.786-2.786v-5.706c0-1.536,1.25-2.786,2.786-2.786h0.095
				c1.536,0,2.786,1.25,2.786,2.786V331.346z"/>
			<path style="fill:#CB1100;" d="M350.32,294.271h-0.095c-3.674,0-6.663,2.989-6.663,6.663v5.706c0,3.674,2.989,6.663,6.663,6.663
				h0.095c1.071,0,1.939-0.868,1.939-1.939s-0.868-1.939-1.939-1.939h-0.095c-1.536,0-2.786-1.25-2.786-2.786v-5.706
				c0-1.536,1.25-2.786,2.786-2.786h0.095c1.536,0,2.786,1.25,2.786,2.786c0,1.071,0.868,1.939,1.939,1.939s1.939-0.868,1.939-1.939
				C356.984,297.26,353.995,294.271,350.32,294.271z"/>
			<path style="fill:#333132;" d="M368.292,294.271h-0.095c-3.674,0-6.663,2.989-6.663,6.663v5.706c0,3.674,2.989,6.663,6.663,6.663
				h0.095c3.674,0,6.663-2.989,6.663-6.663v-5.706C374.955,297.26,371.966,294.271,368.292,294.271z M371.077,306.641
				c0,1.536-1.25,2.786-2.786,2.786h-0.095c-1.536,0-2.786-1.25-2.786-2.786v-5.706c0-1.536,1.25-2.786,2.786-2.786h0.095
				c1.536,0,2.786,1.25,2.786,2.786V306.641z"/>
			<path style="fill:#333132;" d="M328.208,342.837h-0.095c-3.674,0-6.663,2.989-6.663,6.663v5.706c0,3.674,2.989,6.663,6.663,6.663
				h0.095c3.674,0,6.663-2.989,6.663-6.663V349.5C334.871,345.826,331.882,342.837,328.208,342.837z M330.994,355.206
				c0,1.536-1.25,2.786-2.786,2.786h-0.095c-1.536,0-2.786-1.25-2.786-2.786V349.5c0-1.536,1.25-2.786,2.786-2.786h0.095
				c1.536,0,2.786,1.25,2.786,2.786V355.206z"/>
		</g>
		<path id="XMLID_43_" style="fill:#333132;" d="M452.246,168.408c-0.736,0-1.332,0.597-1.332,1.332v2.664
			c-0.01,0.736,0.578,1.341,1.313,1.351c0.736,0.01,1.341-0.578,1.351-1.313c0-0.013,0-0.025,0-0.038v-1.332h2.664v3.173
			l-4.592,2.296c-0.459,0.22-0.753,0.682-0.757,1.191v2.664c0,0.736,0.597,1.332,1.332,1.332c0.006,0,0.013,0,0.019,0h5.329
			c0.736,0.01,1.341-0.578,1.351-1.313c0.01-0.736-0.578-1.341-1.313-1.351c-0.013,0-0.025,0-0.038,0h-4.016v-0.498l4.614-2.307
			c0.451-0.226,0.736-0.687,0.736-1.192v-5.329c0-0.736-0.597-1.332-1.332-1.332h-5.329L452.246,168.408L452.246,168.408z"/>
		<path id="XMLID_52_" style="fill:#333132;" d="M385.617,184.375c-0.735,0.011-1.322,0.616-1.312,1.351v26.643
			c-0.01,0.736,0.578,1.34,1.314,1.35c0.006,0,0.012,0,0.018,0v0.001h0.02h7.973c1.802,0.026,1.802-2.69,0-2.664h-6.661V200.38
			h3.996c1.802,0.026,1.802-2.69,0-2.664h-3.996V187.04h6.661c1.802,0.026,1.802-2.69,0-2.664h-7.993v0.001
			C385.631,184.376,385.624,184.375,385.617,184.375L385.617,184.375z"/>
		<path id="XMLID_53_" style="fill:#333132;" d="M412.26,184.375c-0.735,0.011-1.322,0.616-1.312,1.351v26.643
			c-0.01,0.736,0.578,1.341,1.313,1.351c0.736,0.01,1.341-0.578,1.351-1.313c0-0.013,0-0.025,0-0.038v-25.33h0.567l7.616,12.694
			c0.371,0.635,1.187,0.85,1.822,0.479c0.251-0.147,0.448-0.372,0.56-0.641l7.519-12.532h0.567v25.311
			c-0.026,1.802,2.69,1.802,2.664,0v-26.643c0-0.736-0.597-1.332-1.332-1.332h-2.664v0.005c-0.47,0.003-0.905,0.252-1.142,0.66
			l-6.851,11.418l-6.851-11.418c-0.228-0.392-0.64-0.641-1.093-0.661c-0.017,0-0.033,0-0.05,0.001v-0.005h-2.664v0.001
			C412.274,184.376,412.267,184.376,412.26,184.375L412.26,184.375z"/>
		<path id="XMLID_54_" style="fill:#333132;" d="M438.904,184.375c-0.735,0.011-1.322,0.616-1.312,1.351v26.643
			c-0.01,0.736,0.578,1.34,1.314,1.35c0.006,0,0.012,0,0.018,0v0.001h10.657c1.802,0.026,1.802-2.69,0-2.664h-9.325v-24.017h9.325
			c1.802,0.026,1.802-2.69,0-2.664h-10.657v0.001C438.917,184.376,438.911,184.375,438.904,184.375L438.904,184.375z"/>
		<path id="XMLID_55_" style="fill:#CB1100;" d="M398.959,195.051c-0.736-0.01-1.341,0.578-1.351,1.313
			c-0.01,0.736,0.578,1.341,1.313,1.351c0.013,0,0.025,0,0.038,0h5.329c0.736,0.01,1.341-0.578,1.351-1.313
			c0.01-0.736-0.578-1.341-1.313-1.351c-0.013,0-0.025,0-0.038,0H398.959z"/>
		<path id="XMLID_56_" style="fill:#CB1100;" d="M398.959,200.38c-0.736-0.01-1.341,0.578-1.351,1.313
			c-0.01,0.736,0.578,1.341,1.313,1.351c0.013,0,0.025,0,0.038,0h5.329c0.736,0.01,1.341-0.578,1.351-1.313
			c0.01-0.736-0.578-1.341-1.313-1.351c-0.013,0-0.025,0-0.038,0H398.959z"/>
		<g id="XMLID_57_">
			<path style="fill:#333132;" d="M78.437,231.532h17.398v-39.913H78.437V231.532z M81.508,194.689h11.258v33.773H81.508V194.689z"
				/>
			<path style="fill:#CB1100;" d="M102.999,231.532h17.398v-22.515h-17.398V231.532z M106.07,212.087h11.258v16.375H106.07V212.087z
				"/>
			<path style="fill:#333132;" d="M127.561,177.291v54.241h17.398v-54.241L127.561,177.291L127.561,177.291z M141.889,228.461
				h-11.258v-48.1h11.258V228.461z"/>
			<polygon style="fill:#333132;" points="93.686,176.315 103.409,186.037 127.971,161.475 134.623,168.127 139.725,163.025 
				137.554,160.854 134.623,163.785 127.971,157.133 103.409,181.695 93.686,171.973 82.878,182.781 85.049,184.952 			"/>
		</g>
		<g id="XMLID_58_">
			<g id="XMLID_65_">
				<path style="fill:#CB1100;" d="M341.15,72.642c-2.884-5.505-4.435-10.438-4.373-14.588l14.839,11.278
					c0.84,0.638,1.826,0.504,2.464-0.336c0.638-0.84,0.504-1.826-0.336-2.464l-16.239-12.342c0.465-1.193,0.823-2.246,1.568-3.226
					c3.298-4.34,9.492-4.933,14.028-4.799c1.019,0.112,1.798-0.622,1.91-1.641c0.112-1.019-0.622-1.798-1.641-1.91
					c-7.946-0.297-13.798,1.881-17.096,6.221c-4.469,5.88-3.858,14.957,1.842,25.473c3.371,6.317,4.776,12.023,4.149,16.626
					L326.585,79.02c-0.84-0.638-1.826-0.504-2.464,0.336c-0.638,0.84-0.504,1.826,0.336,2.464l16.659,12.661
					c-0.179,0.526-0.605,1.086-0.924,1.506l-1.064,1.4c-0.638,0.84-0.504,1.826,0.336,2.464c0.84,0.638,1.826,0.504,2.464-0.336
					l1.064-1.4C347.461,92.236,346.851,83.159,341.15,72.642z"/>
			</g>
		</g>
		<g id="XMLID_66_">
			<g id="XMLID_67_">
				<path style="fill:#333132;" d="M333.731,72.524c0.112-1.019-0.622-1.798-1.641-1.91c-7.946-0.297-13.798,1.881-17.096,6.221
					l-1.064,1.4c-0.638,0.84-0.504,1.826,0.336,2.464c0.84,0.638,1.826,0.504,2.464-0.336l1.064-1.4
					c3.298-4.34,9.492-4.933,14.028-4.799C332.84,74.277,333.619,73.544,333.731,72.524z"/>
			</g>
		</g>
		<g id="XMLID_68_">
			<g id="XMLID_69_">
				<path style="fill:#333132;" d="M362.43,44.643c-3.371-6.317-4.776-12.023-4.149-16.626l15.679,11.917
					c0.84,0.638,1.826,0.504,2.464-0.336c0.638-0.84,0.504-1.826-0.336-2.464l-16.659-12.661c0.179-0.526,0.605-1.086,0.924-1.506
					l1.064-1.4c0.638-0.84,0.504-1.825-0.336-2.464c-0.84-0.638-1.826-0.504-2.464,0.336l-1.064,1.4
					c-4.469,5.88-3.858,14.957,1.842,25.473c2.884,5.505,4.435,10.438,4.373,14.588l-14.839-11.278
					c-0.84-0.638-1.826-0.504-2.464,0.336c-0.638,0.84-0.504,1.826,0.336,2.464l16.239,12.342c-0.465,1.193-0.823,2.246-1.568,3.226
					c-3.298,4.34-9.598,5.073-14.274,4.832c-1.019-0.112-1.798,0.622-1.91,1.641c-0.039,0.633,0.274,1.092,0.694,1.411
					c0.28,0.213,0.666,0.286,1.053,0.358c7.84,0.437,13.831-1.635,17.236-6.115C368.741,64.237,368.131,55.16,362.43,44.643z"/>
			</g>
		</g>
		<g id="XMLID_70_">
			<g id="XMLID_71_">
				<path style="fill:#333132;" d="M386.28,38.254c-0.84-0.638-1.826-0.504-2.464,0.336l-1.064,1.4
					c-3.298,4.34-9.598,5.073-14.274,4.832c-1.019-0.112-1.798,0.622-1.91,1.641c-0.039,0.633,0.274,1.092,0.694,1.411
					c0.28,0.213,0.666,0.286,1.053,0.358c7.84,0.437,13.831-1.635,17.236-6.115l1.064-1.4
					C387.254,39.878,387.12,38.893,386.28,38.254z"/>
			</g>
		</g>
		<g id="XMLID_72_">
			<path id="XMLID_73_" style="fill:#333132;" d="M324.03,199.258c0,0.367,0,0.733,0,1.1c-0.113,0.036-0.077,0.134-0.084,0.211
				c-0.083,0.954-0.148,1.911-0.248,2.863c-0.385,3.682-1.188,7.274-2.403,10.768c-3.231,9.289-8.688,17.02-16.335,23.201
				c-4.336,3.505-9.135,6.206-14.368,8.119c-4.79,1.751-9.739,2.752-14.837,2.994c-0.077,0.004-0.174-0.036-0.213,0.077
				c-0.282,0-0.564,0-0.846,0c-0.082-0.105-0.199-0.084-0.308-0.084c-0.782-0.001-1.563-0.001-2.345,0
				c-0.109,0-0.227-0.021-0.308,0.084c-0.367,0-0.733,0-1.1,0c-0.093-0.163-0.252-0.083-0.378-0.091
				c-3.65-0.24-7.241-0.823-10.762-1.824c-5.111-1.454-9.88-3.646-14.299-6.599c-6.382-4.264-11.562-9.681-15.509-16.259
				c-4.109-6.848-6.459-14.266-7.063-22.235c-0.027-0.351,0.041-0.722-0.139-1.055c0-1.721,0-3.441,0-5.162
				c0.085-0.033,0.073-0.109,0.076-0.176c0.084-1.888,0.295-3.763,0.603-5.628c0.189-1.148,0.407-2.29,0.699-3.44
				c0.129,0.065,0.229,0.115,0.328,0.165c2.745,1.392,5.49,2.783,8.235,4.175c4.775,2.423,9.549,4.848,14.328,7.264
				c0.249,0.126,0.339,0.267,0.338,0.546c-0.006,1.101,0.093,2.195,0.254,3.284c0.82,5.549,3.136,10.397,7.069,14.378
				c6.371,6.45,14.113,9.051,23.09,7.69c5.588-0.848,10.383-3.39,14.33-7.422c5.245-5.359,7.765-11.829,7.567-19.338
				c-0.009-0.335,0.075-0.511,0.39-0.67c6.547-3.309,13.087-6.632,19.629-9.952c0.957-0.486,1.916-0.968,2.882-1.457
				c0.04,0.123,0.07,0.202,0.091,0.283c0.754,2.953,1.265,5.946,1.488,8.989c0.032,0.436-0.03,0.888,0.148,1.309
				c0,0.338,0,0.677,0,1.015c-0.118,0.095-0.083,0.229-0.083,0.35c-0.002,0.726-0.002,1.451,0,2.177
				C323.947,199.029,323.912,199.163,324.03,199.258z M238.788,214.036c0.028,0.024,0.056,0.048,0.085,0.072
				c-0.646,0.956-1.248,1.947-1.955,2.855c-0.436,0.56-0.485,1.028-0.125,1.61c0.123,0.199,0.195,0.236,0.407,0.139
				c1.483-0.675,2.972-1.335,4.459-2c0.794-0.355,0.785-0.35,0.395-1.125c-0.095-0.189-0.171-0.205-0.35-0.123
				c-0.676,0.311-1.359,0.607-2.04,0.907c-0.412,0.182-0.826,0.361-1.239,0.541c0.66-1.086,1.326-2.132,2.077-3.114
				c0.389-0.509,0.44-0.926,0.114-1.462c-0.137-0.225-0.208-0.279-0.457-0.166c-1.484,0.673-2.976,1.325-4.465,1.986
				c-0.72,0.32-0.704,0.315-0.398,1.042c0.121,0.289,0.231,0.28,0.487,0.163C236.777,214.904,237.785,214.476,238.788,214.036z
				 M298.939,227.483c-0.014-0.019-0.03-0.037-0.048-0.053c0.059-0.109,0.117-0.22,0.179-0.328c0.355-0.626,0.307-1.247-0.141-1.808
				c-0.596-0.745-1.444-0.887-2.242-0.336c-0.848,0.585-1.564,1.333-2.364,1.978c-0.238,0.192-0.22,0.301-0.029,0.516
				c1.046,1.181,2.076,2.376,3.109,3.569c0.603,0.696,0.591,0.686,1.288,0.093c0.216-0.184,0.177-0.279,0.014-0.457
				c-0.428-0.467-0.838-0.951-1.251-1.432c-0.081-0.094-0.235-0.173-0.049-0.333c0.368-0.315,0.736-0.546,1.26-0.389
				c0.659,0.198,1.329,0.361,1.997,0.524c0.124,0.03,0.26,0.142,0.396,0.015c0.316-0.294,0.677-0.541,0.968-0.891
				c-0.186-0.061-0.341-0.122-0.502-0.163C300.673,227.771,299.856,227.371,298.939,227.483z M252.891,234.871
				c-0.03-1.141,0.188-2.217-0.253-3.308c0.115,0.037,0.178,0.057,0.241,0.077c0.882,0.274,1.584,0.01,2.014-0.758
				c0.432-0.772,0.284-1.48-0.443-2.093c-0.14-0.118-0.284-0.232-0.437-0.332c-0.693-0.457-1.398-0.896-2.079-1.369
				c-0.248-0.172-0.348-0.136-0.504,0.11c-0.844,1.33-1.708,2.647-2.566,3.968c-0.515,0.793-0.511,0.786,0.284,1.283
				c0.179,0.112,0.267,0.115,0.384-0.076c0.34-0.55,0.699-1.088,1.055-1.629c0.07-0.107,0.115-0.285,0.311-0.155
				c0.372,0.246,0.707,0.505,0.712,1.019c0.007,0.732,0.041,1.464,0.065,2.196c0.004,0.135-0.028,0.271,0.131,0.367
				C252.15,234.381,252.485,234.608,252.891,234.871z M304.558,219.125c0.008-0.034,0.016-0.068,0.024-0.101
				c1.196-0.053,2.392-0.138,3.588-0.145c0.604-0.004,0.974-0.189,1.226-0.758c0.146-0.331,0.096-0.428-0.195-0.585
				c-1.385-0.747-2.758-1.518-4.134-2.283c-0.785-0.437-0.778-0.436-1.18,0.366c-0.082,0.163-0.074,0.238,0.091,0.323
				c0.35,0.18,0.69,0.379,1.034,0.57c0.717,0.399,1.434,0.798,2.253,1.254c-1.369,0.063-2.615,0.169-3.861,0.159
				c-0.647-0.005-1.002,0.21-1.237,0.79c-0.101,0.248-0.092,0.332,0.142,0.46c1.456,0.794,2.903,1.607,4.353,2.412
				c0.606,0.336,0.583,0.32,0.952-0.269c0.208-0.332,0.122-0.45-0.191-0.614C306.458,220.195,305.512,219.654,304.558,219.125z
				 M272.452,235.22c0.827,0.054,0.815,0.053,0.883-0.594c0.028-0.27-0.043-0.357-0.317-0.378c-1.278-0.097-2.555-0.208-3.83-0.336
				c-0.254-0.026-0.285,0.084-0.3,0.272c-0.051,0.618-0.104,1.235-0.157,1.853c-0.101,1.179-0.201,2.358-0.305,3.536
				c-0.016,0.181-0.034,0.301,0.231,0.321c1.348,0.101,2.695,0.225,4.041,0.353c0.187,0.018,0.262-0.032,0.268-0.211
				c0.002-0.056,0.017-0.112,0.02-0.168c0.025-0.681,0.172-0.587-0.547-0.661c-0.504-0.052-1.013-0.069-1.514-0.144
				c-0.406-0.061-0.983,0.143-1.175-0.203c-0.171-0.308,0.03-0.818,0.051-1.24c0.011-0.211,0.07-0.294,0.304-0.268
				c0.672,0.075,1.347,0.115,2.02,0.182c0.772,0.077,0.762,0.083,0.791-0.694c0.008-0.212-0.063-0.256-0.256-0.269
				c-0.576-0.039-1.15-0.105-1.726-0.153c-1.085-0.089-1.076-0.086-0.917-1.157c0.032-0.213,0.101-0.244,0.292-0.225
				C271.064,235.11,271.823,235.167,272.452,235.22z M309.474,211.163c0.043-0.119-0.047-0.145-0.125-0.175
				c-0.144-0.056-0.298-0.094-0.431-0.168c-0.251-0.14-0.378-0.106-0.474,0.193c-0.168,0.521-0.384,1.026-0.583,1.536
				c-0.117,0.3-0.164,0.739-0.383,0.859c-0.256,0.141-0.601-0.198-0.924-0.268c-0.295-0.064-0.274-0.217-0.183-0.443
				c0.273-0.677,0.532-1.361,0.795-2.042c0.261-0.676,0.255-0.661-0.448-0.926c-0.229-0.087-0.29-0.016-0.36,0.17
				c-0.457,1.209-0.912,2.419-1.388,3.621c-0.095,0.24-0.031,0.306,0.183,0.386c1.668,0.632,3.334,1.272,4.995,1.922
				c0.272,0.107,0.364,0.042,0.463-0.229c0.41-1.121,0.85-2.231,1.28-3.345c0.219-0.568,0.211-0.548-0.347-0.802
				c-0.318-0.145-0.429-0.06-0.537,0.245c-0.296,0.834-0.629,1.654-0.939,2.484c-0.071,0.189-0.133,0.274-0.357,0.169
				c-0.33-0.153-0.679-0.27-1.026-0.383c-0.217-0.07-0.231-0.165-0.15-0.366c0.291-0.716,0.561-1.44,0.838-2.161
				C309.407,211.348,309.44,211.255,309.474,211.163z M251.097,226.59c-0.117-0.132-0.176-0.209-0.246-0.276
				c-0.92-0.893-1.849-1.778-2.758-2.683c-0.206-0.205-0.301-0.133-0.461,0.034c-1.227,1.284-2.458,2.564-3.7,3.833
				c-0.189,0.193-0.201,0.291,0.003,0.483c0.883,0.83,1.747,1.68,2.619,2.523c0.43,0.416,0.415,0.398,0.866-0.023
				c0.253-0.235,0.218-0.364-0.017-0.58c-0.643-0.591-1.257-1.214-1.896-1.81c-0.181-0.169-0.228-0.277-0.019-0.461
				c0.253-0.223,0.486-0.472,0.705-0.729c0.155-0.181,0.256-0.187,0.428-0.013c0.475,0.481,0.971,0.941,1.458,1.411
				c0.509,0.492,0.498,0.482,0.984-0.016c0.183-0.187,0.187-0.286-0.008-0.461c-0.42-0.375-0.819-0.775-1.224-1.166
				c-0.753-0.727-0.746-0.72,0.013-1.462c0.171-0.167,0.252-0.138,0.402,0.011c0.591,0.585,1.191,1.16,1.797,1.73
				c0.108,0.101,0.198,0.343,0.374,0.237C250.666,227.023,250.867,226.794,251.097,226.59z M255.647,234.405
				c0.142-0.323-0.074-0.439-0.365-0.516c-0.149-0.039-0.297-0.091-0.436-0.156c-0.211-0.098-0.299-0.022-0.343,0.19
				c-0.18,0.853-0.022,1.595,0.686,2.163c0.538,0.432,1.155,0.698,1.831,0.809c0.76,0.125,1.495-0.246,1.85-0.903
				c0.4-0.741,0.321-1.426-0.244-2.064c-0.31-0.35-0.685-0.626-1.042-0.924c-0.216-0.18-0.437-0.358-0.596-0.594
				c-0.178-0.263-0.165-0.524,0.115-0.692c0.433-0.261,1.737,0.209,1.658,0.954c-0.04,0.379,0.112,0.486,0.405,0.573
				c0.16,0.048,0.314,0.122,0.465,0.197c0.17,0.084,0.239,0.036,0.288-0.147c0.165-0.616,0.087-1.182-0.353-1.654
				c-0.59-0.634-1.341-0.976-2.196-1.048c-0.786-0.066-1.462,0.459-1.647,1.227c-0.174,0.72,0.154,1.26,0.65,1.723
				c0.411,0.384,0.867,0.721,1.264,1.119c0.434,0.434,0.227,1.011-0.377,1.136C256.467,235.963,255.615,235.246,255.647,234.405z
				 M306.977,207.344c-0.036,1.137,0.72,1.921,1.773,1.822c0.633-0.06,1.043-0.453,1.346-0.973c0.283-0.485,0.528-0.993,0.829-1.467
				c0.317-0.499,0.864-0.47,1.148,0.031c0.386,0.684-0.072,1.82-0.843,1.918c-0.491,0.062-0.592,0.274-0.581,0.682
				c0.003,0.111-0.029,0.223-0.052,0.333c-0.032,0.151-0.007,0.228,0.178,0.236c0.835,0.035,1.529-0.218,1.975-0.964
				c0.363-0.607,0.512-1.282,0.499-1.98c-0.017-0.893-0.516-1.538-1.306-1.763c-0.839-0.239-1.526,0.04-2.044,0.858
				c-0.218,0.343-0.396,0.711-0.593,1.067c-0.136,0.246-0.26,0.503-0.469,0.698c-0.27,0.252-0.619,0.186-0.765-0.135
				c-0.302-0.663,0.152-1.583,0.853-1.704c0.144-0.025,0.241-0.055,0.254-0.211c0.029-0.33,0.199-0.645,0.107-0.983
				c-0.01-0.036-0.152-0.046-0.234-0.049c-0.716-0.03-1.249,0.284-1.608,0.891C307.135,206.171,307.013,206.747,306.977,207.344z
				 M302.567,227.546c0.9-0.859,0.9-0.859,0.317-1.868c-0.014-0.024-0.023-0.053-0.041-0.073c-0.154-0.178-0.138-0.321,0.029-0.504
				c0.397-0.437,0.778-0.891,1.141-1.356c0.159-0.204,0.298-0.228,0.535-0.142c0.352,0.127,0.75,0.427,1.059,0.298
				c0.324-0.136,0.527-0.561,0.78-0.861c0.014-0.016,0.01-0.047,0.016-0.084c-0.077-0.03-0.153-0.064-0.233-0.09
				c-1.639-0.539-3.278-1.076-4.917-1.615c-0.971-0.319-0.965-0.316-1.605,0.472c-0.129,0.159-0.13,0.268-0.035,0.44
				C300.599,223.945,301.574,225.731,302.567,227.546z M235.431,212.232c0.195-0.026,0.394-0.033,0.584-0.081
				c1.09-0.272,2.179-0.55,3.266-0.834c0.779-0.204,0.752-0.204,0.578-0.993c-0.077-0.347-0.206-0.37-0.505-0.289
				c-1.206,0.327-2.416,0.643-3.63,0.94c-0.5,0.123-0.845-0.076-1.059-0.538c-0.406-0.874-0.128-1.515,0.802-1.782
				c1.12-0.322,2.245-0.628,3.374-0.917c0.245-0.063,0.295-0.159,0.223-0.374c-0.035-0.106-0.056-0.218-0.089-0.325
				c-0.203-0.658-0.053-0.587-0.713-0.402c-1.243,0.349-2.514,0.6-3.722,1.072c-0.669,0.261-1.057,0.767-1.118,1.46
				c-0.074,0.848,0.141,1.654,0.635,2.355C234.382,211.986,234.842,212.244,235.431,212.232z M242.382,223.672
				c-0.014-0.028-0.028-0.056-0.043-0.084c0.073-0.119,0.144-0.239,0.22-0.356c0.684-1.049,1.37-2.097,2.052-3.148
				c0.086-0.132,0.238-0.251,0.072-0.443c-0.234-0.27-0.447-0.558-0.696-0.873c-0.987,1.558-1.943,3.066-2.897,4.575
				c-0.529,0.837-0.522,0.833,0.105,1.605c0.136,0.167,0.242,0.208,0.456,0.134c1.155-0.398,2.318-0.775,3.478-1.159
				c0.752-0.249,1.504-0.496,2.295-0.757c-0.232-0.298-0.438-0.546-0.623-0.808c-0.119-0.169-0.233-0.192-0.426-0.114
				c-0.456,0.183-0.924,0.336-1.387,0.501C244.12,223.054,243.251,223.363,242.382,223.672z M268.28,234.209
				c0.089-0.254-0.113-0.231-0.254-0.266c-1.213-0.304-2.425-0.61-3.638-0.912c-0.709-0.177-0.697-0.171-0.868,0.54
				c-0.058,0.24,0.013,0.318,0.229,0.364c0.371,0.079,0.735,0.195,1.108,0.258c0.292,0.049,0.314,0.186,0.25,0.434
				c-0.314,1.225-0.615,2.453-0.921,3.679c-0.203,0.815-0.201,0.802,0.633,1.021c0.265,0.07,0.359,0.038,0.425-0.249
				c0.27-1.163,0.572-2.318,0.865-3.476c0.082-0.325,0.078-0.785,0.29-0.936c0.253-0.18,0.659,0.091,0.997,0.169
				C268.155,235.011,268.191,234.996,268.28,234.209z M278.115,233.853c-1.28,0.113-2.502,0.216-3.722,0.33
				c-0.69,0.065-0.675,0.072-0.633,0.77c0.016,0.258,0.116,0.301,0.339,0.275c0.35-0.041,0.705-0.04,1.052-0.097
				c0.356-0.058,0.449,0.077,0.472,0.416c0.086,1.223,0.193,2.444,0.313,3.664c0.088,0.89,0.102,0.876,0.996,0.777
				c0.25-0.028,0.279-0.106,0.257-0.337c-0.137-1.445-0.25-2.892-0.383-4.337c-0.023-0.247,0.02-0.357,0.299-0.355
				c0.337,0.002,0.677-0.092,1.01-0.069c0.496,0.033,0.417-0.265,0.392-0.563C278.482,234.045,278.535,233.699,278.115,233.853z
				 M291.971,229.715c-0.068-0.13-0.162-0.273-0.223-0.429c-0.115-0.293-0.242-0.352-0.549-0.181
				c-1.068,0.596-2.158,1.153-3.239,1.725c-0.648,0.343-0.638,0.339-0.277,0.988c0.108,0.194,0.19,0.23,0.384,0.115
				c0.326-0.194,0.681-0.34,1.001-0.542c0.246-0.155,0.355-0.132,0.493,0.138c0.577,1.126,1.182,2.238,1.775,3.356
				c0.398,0.749,0.387,0.727,1.145,0.359c0.319-0.155,0.276-0.289,0.143-0.535c-0.662-1.225-1.303-2.46-1.97-3.682
				c-0.147-0.27-0.192-0.424,0.152-0.562c0.35-0.141,0.674-0.347,1.006-0.531C291.888,229.892,292.025,229.886,291.971,229.715z
				 M243.703,218.255c-0.15-0.243-0.308-0.462-0.427-0.7c-0.131-0.262-0.252-0.281-0.504-0.121
				c-1.328,0.848-2.669,1.675-4.008,2.507c-0.834,0.519-0.83,0.513-0.263,1.326c0.104,0.149,0.174,0.173,0.328,0.076
				c1.56-0.983,3.123-1.959,4.685-2.938C243.582,218.362,243.64,218.305,243.703,218.255z M284.637,232.174
				c-0.271,0.092-0.548,0.192-0.83,0.279c-0.172,0.053-0.203,0.139-0.141,0.304c0.124,0.329,0.232,0.663,0.346,0.996
				c0.48,1.395,0.965,2.788,1.435,4.187c0.08,0.237,0.2,0.293,0.386,0.16c0.256-0.183,0.908-0.024,0.762-0.503
				c-0.534-1.76-1.172-3.489-1.776-5.228C284.791,232.29,284.798,232.153,284.637,232.174z M280.203,233.361
				c-0.261,0.053-0.521,0.125-0.785,0.154c-0.218,0.024-0.236,0.107-0.197,0.303c0.316,1.583,0.614,3.169,0.929,4.752
				c0.176,0.886,0.182,0.872,1.065,0.719c0.255-0.044,0.292-0.15,0.246-0.366c-0.088-0.412-0.167-0.825-0.247-1.239
				c-0.261-1.35-0.519-2.702-0.787-4.051C280.404,233.521,280.437,233.32,280.203,233.361z M260.832,238.272
				c0.194,0.016,0.171-0.18,0.21-0.29c0.523-1.499,1.038-3,1.553-4.502c0.306-0.892,0.301-0.883-0.614-1.168
				c-0.204-0.064-0.263-0.025-0.327,0.165c-0.592,1.743-1.194,3.482-1.791,5.223c-0.028,0.082-0.126,0.182,0.032,0.239
				C260.199,238.048,260.504,238.155,260.832,238.272z M292.903,227.918c-0.21,0.15-0.418,0.32-0.646,0.457
				c-0.257,0.154-0.242,0.287-0.072,0.518c0.937,1.265,1.857,2.543,2.782,3.818c0.577,0.795,0.573,0.79,1.337,0.159
				c0.144-0.119,0.15-0.188,0.044-0.333c-1.088-1.486-2.169-2.977-3.253-4.466C293.047,228.005,293.014,227.921,292.903,227.918z
				 M305.808,210.394c-0.007-0.088-0.63-0.394-0.796-0.391c-0.095,0.002-0.489,0.684-0.415,0.802
				c0.172,0.274,0.514,0.278,0.787,0.389C305.462,211.225,305.819,210.543,305.808,210.394z M305.156,212.109
				c0.01-0.133-0.589-0.518-0.772-0.451c-0.322,0.118-0.264,0.5-0.402,0.753c-0.046,0.085,0.592,0.493,0.766,0.425
				C305.061,212.713,305,212.327,305.156,212.109z"/>
			<path id="XMLID_97_" style="fill:#CB1100;" d="M270.889,147.047c1.664,0,3.328,0,4.993,0c0.053,0.127,0.168,0.076,0.257,0.081
				c4.911,0.28,9.695,1.212,14.304,2.93c12.575,4.688,21.93,13.029,28.137,24.919c0.146,0.28,0.071,0.367-0.174,0.492
				c-7.065,3.576-14.128,7.156-21.187,10.745c-0.304,0.154-0.438,0.161-0.614-0.184c-2.376-4.672-5.855-8.308-10.38-10.944
				c-0.443-0.258-0.886-0.521-1.413-0.719c0,0.225,0,0.406,0,0.588c0,13.891-0.002,27.782,0.01,41.673c0,0.417-0.11,0.5-0.51,0.499
				c-7.362-0.013-14.723-0.014-22.085,0.001c-0.444,0.001-0.546-0.114-0.546-0.55c0.012-13.905,0.01-27.81,0.01-41.715
				c0-0.158,0-0.316,0-0.534c-0.368,0.192-0.657,0.333-0.938,0.489c-5.204,2.904-9.045,7.061-11.475,12.508
				c-0.118,0.265-0.215,0.28-0.458,0.156c-1.588-0.819-3.183-1.623-4.776-2.431c-5.507-2.794-11.012-5.59-16.525-8.372
				c-0.293-0.148-0.299-0.256-0.168-0.53c0.92-1.919,1.941-3.782,3.095-5.569c5.403-8.37,12.605-14.688,21.64-18.893
				c5.492-2.556,11.271-4.031,17.312-4.499C269.895,147.151,270.404,147.212,270.889,147.047z M271.836,149.655
				c-0.836,0.397-1.552,0.1-2.275-0.179c-0.282-0.109-0.608-0.16-0.861,0.003c-0.27,0.174-0.539,0.185-0.833,0.21
				c-0.317,0.027-0.689,0.051-0.706,0.501c-0.015,0.4-0.222,0.242-0.371,0.128c-0.142-0.108-0.238-0.275-0.364-0.407
				c-0.083-0.087-0.2-0.133-0.303-0.05c-0.116,0.094-0.05,0.208,0.02,0.298c0.198,0.254,0.451,0.421,0.778,0.458
				c0.281,0.032,0.525,0.076,0.7,0.367c0.14,0.232,0.437,0.284,0.714,0.304c0.224,0.016,0.452,0.031,0.669,0.083
				c1.187,0.288,1.996,1.367,1.895,2.508c-0.04,0.453-0.313,0.708-0.741,0.693c-0.393-0.014-0.603-0.248-0.621-0.702
				c-0.006-0.155,0.004-0.31,0.005-0.465c0.003-0.589-0.213-0.934-0.749-1.147c-0.576-0.229-1.16-0.434-1.736-0.661
				c-0.141-0.056-0.269-0.073-0.304,0.088c-0.096,0.439-0.376,0.325-0.646,0.234c-1.023-0.346-1.944-0.834-2.498-1.825
				c-0.1-0.179-0.247-0.328-0.469-0.3c-0.247,0.031-0.387,0.206-0.467,0.436c-0.086,0.248-0.028,0.472,0.104,0.684
				c0.158,0.255,0.374,0.455,0.616,0.631c0.792,0.575,1.689,0.89,2.638,1.077c0.235,0.046,0.467,0.102,0.452,0.397
				c-0.014,0.283-0.234,0.346-0.477,0.376c-0.974,0.119-1.894,0.08-2.565-0.791c-0.111-0.144-0.279-0.205-0.455-0.128
				c-0.195,0.086-0.234,0.264-0.226,0.46c0.007,0.178,0.092,0.326,0.188,0.464c0.384,0.551,0.94,0.782,1.587,0.84
				c0.624,0.056,1.198-0.121,1.759-0.369c0.115-0.051,0.254-0.109,0.347,0.017c0.078,0.105-0.003,0.21-0.066,0.307
				c-0.473,0.737-1.297,1.046-2.132,0.796c-0.313-0.094-0.594-0.254-0.884-0.398c-0.231-0.115-0.498-0.292-0.708,0.028
				c-0.224,0.341,0.003,0.557,0.256,0.736c0.435,0.307,0.918,0.474,1.458,0.495c0.572,0.023,1.076-0.181,1.582-0.399
				c0.126-0.054,0.295-0.118,0.397,0.003c0.111,0.131-0.019,0.264-0.092,0.378c-0.531,0.821-1.848,1.188-2.698,0.756
				c-0.379-0.193-0.729-0.151-0.864,0.103c-0.124,0.233,0.047,0.609,0.382,0.805c0.511,0.299,1.03,0.229,1.539-0.007
				c0.434-0.201,0.858-0.425,1.292-0.628c0.116-0.054,0.269-0.186,0.374-0.022c0.085,0.133-0.025,0.267-0.118,0.377
				c-0.747,0.888-1.544,1.643-2.851,1.149c-0.208-0.079-0.427-0.064-0.57,0.141c-0.141,0.202-0.054,0.413,0.037,0.602
				c0.096,0.201,0.282,0.31,0.491,0.374c0.531,0.164,1.029,0.082,1.498-0.206c0.53-0.326,1.016-0.709,1.482-1.12
				c0.087-0.077,0.216-0.193,0.332-0.07c0.093,0.098-0.017,0.216-0.073,0.302c-0.382,0.593-0.787,1.17-1.319,1.644
				c-0.41,0.365-0.886,0.536-1.437,0.49c-0.239-0.02-0.48-0.047-0.717-0.033c-0.334,0.02-0.445,0.236-0.273,0.524
				c0.186,0.312,0.487,0.459,0.84,0.502c0.55,0.068,1.024-0.137,1.469-0.43c0.487-0.321,0.894-0.729,1.267-1.175
				c0.064-0.077,0.135-0.223,0.264-0.128c0.085,0.063,0.031,0.184-0.006,0.276c-0.314,0.78-0.719,1.503-1.367,2.057
				c-0.447,0.383-0.951,0.6-1.559,0.437c-0.093-0.025-0.198-0.024-0.294-0.011c-0.154,0.021-0.32,0.054-0.382,0.221
				c-0.068,0.183,0.024,0.33,0.16,0.447c0.23,0.199,0.492,0.321,0.802,0.337c0.696,0.036,1.27-0.238,1.743-0.718
				c0.654-0.663,1.257-1.371,1.756-2.162c0.073-0.115,0.157-0.282,0.318-0.219c0.151,0.059,0.136,0.237,0.109,0.376
				c-0.127,0.657-0.391,1.232-0.982,1.61c-0.184,0.118-0.452,0.239-0.288,0.513c0.16,0.269,0.439,0.345,0.738,0.199
				c0.235-0.115,0.396-0.314,0.541-0.524c0.347-0.502,0.594-1.054,0.815-1.619c0.059-0.15,0.13-0.303,0.328-0.255
				c0.215,0.051,0.16,0.238,0.15,0.384c-0.027,0.384-0.216,0.692-0.475,0.965c-0.101,0.107-0.174,0.229-0.07,0.377
				c0.112,0.161,0.252,0.144,0.409,0.07c0.398-0.187,0.692-0.473,0.891-0.867c0.062-0.124,0.067-0.315,0.282-0.325
				c0.061,0.169-0.033,0.306-0.084,0.445c-0.374,1.002-1.148,1.616-2.063,2.078c-0.277,0.14-0.334,0.25-0.088,0.472
				c0.077,0.069,0.31,0.196,0.081,0.314c-0.601,0.309-1.232,0.555-1.875,0.763c-0.036,0.012-0.091,0.005-0.122-0.015
				c-0.386-0.248-0.845-0.396-1.09-0.834c-0.184-0.33-1.329-0.568-1.635-0.351c-0.034,0.024-0.071,0.052-0.089,0.087
				c-0.031,0.06-0.071,0.131-0.064,0.192c0.011,0.092,0.105,0.076,0.169,0.066c0.309-0.044,0.547,0.066,0.739,0.309
				c0.082,0.103,0.221,0.163,0.34,0.144c0.475-0.076,0.713,0.283,1.029,0.511c-0.505-0.079-1.03,0.077-1.501-0.16
				c-0.335-0.168-1.141-0.124-1.426,0.117c-0.081,0.068-0.183,0.142-0.115,0.288c0.239,0.028,0.504-0.149,0.722,0.058
				c0.241,0.229,0.498,0.178,0.786,0.113c0.467-0.106,0.945-0.108,1.424-0.042c-0.295,0.243-0.565,0.486-0.978,0.424
				c-0.253-0.038-0.529,0.05-0.59,0.304c-0.08,0.332-0.341,0.68-0.044,1.13c0.135-0.429,0.344-0.634,0.745-0.632
				c0.204,0.001,0.315-0.203,0.42-0.379c0.437-0.727,1.564-0.895,2.175-0.329c0.05,0.046,0.077,0.116,0.118,0.174
				c0.079,0.111,0.198,0.206,0.32,0.163c0.337-0.122,0.573,0.013,0.779,0.303c0.072-0.606-0.336-1.069-0.857-1.004
				c-0.301,0.037-0.495-0.132-0.765-0.284c0.376-0.14,0.717-0.238,1.031-0.39c0.552-0.267,1.068-0.439,1.621,0.031
				c0.233,0.198,0.456,0.125,0.599-0.225c0.304-0.744,0.689-1.451,1.193-2.084c0.13-0.163,0.265-0.39,0.505-0.297
				c0.244,0.095,0.251,0.362,0.225,0.587c-0.096,0.828-0.374,1.587-0.894,2.247c-0.392,0.497-0.881,0.825-1.534,0.863
				c-0.153,0.009-0.34,0.005-0.363,0.208c-0.019,0.168,0.099,0.294,0.244,0.366c0.111,0.055,0.236,0.094,0.358,0.111
				c0.366,0.052,0.696-0.045,0.994-0.266c0.088-0.065,0.196-0.148,0.304-0.052c0.105,0.093,0.03,0.212-0.004,0.314
				c-0.114,0.345-0.408,0.438-0.721,0.502c-0.22,0.045-0.448,0.067-0.659,0.138c-0.304,0.102-0.313,0.299-0.095,0.507
				c0.292,0.278,0.635,0.263,0.987,0.14c0.329-0.115,0.582-0.337,0.818-0.584c0.064-0.067,0.133-0.169,0.247-0.106
				c0.106,0.059,0.074,0.173,0.067,0.268c-0.039,0.508-0.349,0.876-0.858,1.024c-0.095,0.028-0.192,0.049-0.282,0.087
				c-0.112,0.048-0.264,0.069-0.272,0.228c-0.009,0.164,0.115,0.255,0.242,0.316c0.33,0.157,0.647,0.128,0.965-0.061
				c0.3-0.178,0.502-0.461,0.766-0.708c0.114,0.296,0,0.508-0.132,0.708c-0.4,0.608-0.423,0.851,0.023,1.433
				c0.599,0.781,0.465,0.822,1.09,0.002c0.334-0.439,0.541-0.923,0.029-1.443c-0.171-0.173-0.254-0.417-0.159-0.678
				c0.06,0.009,0.078,0.007,0.085,0.014c0.046,0.052,0.089,0.106,0.134,0.158c0.331,0.38,0.68,0.731,1.245,0.663
				c0.231-0.028,0.482-0.106,0.515-0.36c0.034-0.266-0.246-0.251-0.418-0.321c-0.052-0.021-0.107-0.035-0.161-0.052
				c-0.503-0.157-0.801-0.546-0.817-1.057c-0.003-0.087-0.01-0.179,0.077-0.224c0.094-0.049,0.153,0.034,0.215,0.088
				c0.159,0.138,0.307,0.294,0.479,0.413c0.378,0.263,0.787,0.387,1.226,0.149c0.136-0.074,0.266-0.181,0.258-0.359
				c-0.009-0.196-0.181-0.242-0.325-0.283c-0.175-0.05-0.358-0.072-0.539-0.097c-0.244-0.033-0.471-0.109-0.634-0.3
				c-0.123-0.144-0.222-0.347-0.096-0.499c0.133-0.161,0.275,0.035,0.395,0.108c0.391,0.233,0.793,0.278,1.21,0.093
				c0.16-0.071,0.311-0.207,0.293-0.381c-0.023-0.216-0.241-0.199-0.406-0.209c-0.57-0.035-1.026-0.297-1.389-0.717
				c-0.6-0.692-0.928-1.505-1.007-2.416c-0.018-0.211-0.023-0.458,0.199-0.559c0.249-0.114,0.384,0.114,0.511,0.274
				c0.515,0.643,0.904,1.365,1.212,2.122c0.138,0.338,0.317,0.345,0.579,0.223c0.152-0.071,0.296-0.163,0.439-0.251
				c0.12-0.074,0.231-0.17,0.387-0.109c0.603,0.233,1.206,0.465,1.879,0.725c-0.312,0.114-0.501,0.295-0.781,0.268
				c-0.564-0.055-0.97,0.394-0.884,0.96c0.265-0.226,0.265-0.228,0.766-0.256c0.119-0.007,0.215-0.045,0.301-0.128
				c0.773-0.746,1.133-0.781,2-0.212c0.156,0.102,0.297,0.206,0.367,0.39c0.058,0.152,0.177,0.294,0.332,0.297
				c0.419,0.009,0.682,0.208,0.801,0.676c0.333-0.838-0.048-1.468-0.801-1.46c-0.373,0.004-0.598-0.239-0.859-0.451
				c0.503-0.018,1.002-0.051,1.489,0.077c0.183,0.048,0.408,0.121,0.531,0.015c0.306-0.263,0.64-0.257,1.03-0.156
				c-0.239-0.443-1.101-0.768-1.454-0.533c-0.531,0.354-1.114,0.135-1.665,0.256c0.499-0.57,1.312-0.519,1.863-0.973
				c0.017-0.014,0.058,0.005,0.083-0.004c0.111-0.042,0.327,0.123,0.325-0.121c-0.001-0.193-0.182-0.295-0.359-0.292
				c-0.349,0.006-0.697,0.039-1.044,0.079c-0.128,0.014-0.25,0.104-0.301,0.216c-0.202,0.448-0.628,0.628-0.999,0.876
				c-0.155,0.104-0.304,0.125-0.477,0.053c-0.519-0.218-1.038-0.438-1.562-0.642c-0.248-0.097-0.277-0.21-0.069-0.372
				c0.304-0.236,0.206-0.347-0.095-0.501c-0.896-0.46-1.665-1.063-2.031-2.054c-0.053-0.144-0.16-0.288-0.076-0.469
				c0.199,0.067,0.214,0.239,0.281,0.368c0.182,0.349,0.443,0.617,0.793,0.796c0.162,0.083,0.341,0.194,0.49-0.011
				c0.13-0.179,0.006-0.314-0.109-0.444c-0.218-0.247-0.396-0.519-0.427-0.855c-0.014-0.156-0.096-0.37,0.126-0.439
				c0.243-0.075,0.306,0.139,0.373,0.309c0.217,0.552,0.46,1.091,0.801,1.579c0.155,0.221,0.327,0.436,0.586,0.533
				c0.285,0.106,0.554,0.026,0.693-0.242c0.133-0.255-0.106-0.378-0.281-0.487c-0.568-0.354-0.836-0.892-0.971-1.521
				c-0.037-0.171-0.095-0.381,0.074-0.462c0.198-0.094,0.279,0.136,0.364,0.268c0.475,0.739,1.051,1.395,1.646,2.036
				c0.344,0.37,0.765,0.626,1.259,0.737c0.487,0.11,0.957,0.072,1.348-0.286c0.123-0.113,0.259-0.242,0.185-0.435
				c-0.07-0.181-0.245-0.222-0.416-0.241c-0.096-0.011-0.201-0.009-0.294,0.015c-0.629,0.166-1.135-0.085-1.588-0.478
				c-0.578-0.501-0.942-1.153-1.244-1.842c-0.064-0.146-0.232-0.355-0.072-0.456c0.166-0.104,0.268,0.15,0.374,0.265
				c0.491,0.529,0.992,1.045,1.678,1.326c0.523,0.213,1.043,0.254,1.529-0.091c0.197-0.14,0.392-0.327,0.299-0.596
				c-0.087-0.252-0.342-0.204-0.55-0.199c-0.183,0.005-0.365,0.029-0.548,0.039c-0.374,0.02-0.733-0.04-1.051-0.25
				c-0.751-0.496-1.226-1.232-1.695-1.971c-0.04-0.063-0.106-0.152-0.023-0.228c0.075-0.069,0.162-0.031,0.231,0.019
				c0.114,0.083,0.225,0.17,0.33,0.262c0.426,0.372,0.875,0.715,1.371,0.984c0.523,0.284,1.077,0.343,1.612,0.027
				c0.293-0.173,0.442-0.464,0.318-0.795c-0.125-0.334-0.428-0.246-0.692-0.194c-0.096,0.019-0.191,0.047-0.285,0.076
				c-0.493,0.157-0.946,0.057-1.371-0.212c-0.446-0.282-0.8-0.666-1.135-1.067c-0.083-0.1-0.167-0.23-0.087-0.345
				c0.092-0.131,0.23-0.046,0.343,0.009c0.456,0.223,0.903,0.463,1.367,0.667c0.557,0.246,1.124,0.301,1.635-0.112
				c0.229-0.185,0.403-0.45,0.219-0.739c-0.183-0.286-0.48-0.239-0.758-0.113c-0.885,0.402-1.8,0.263-2.492-0.394
				c-0.199-0.189-0.533-0.434-0.368-0.679c0.156-0.232,0.483,0.033,0.726,0.123c0.04,0.014,0.076,0.038,0.115,0.053
				c0.938,0.343,1.825,0.276,2.642-0.333c0.234-0.175,0.387-0.389,0.209-0.685c-0.186-0.31-0.442-0.174-0.665-0.062
				c-0.366,0.182-0.723,0.379-1.126,0.473c-0.747,0.174-1.632-0.227-1.983-0.903c-0.04-0.077-0.083-0.154-0.038-0.238
				c0.06-0.114,0.171-0.089,0.262-0.063c0.135,0.039,0.265,0.096,0.394,0.151c0.476,0.203,0.971,0.296,1.486,0.247
				c0.729-0.069,1.333-0.359,1.679-1.042c0.121-0.239,0.147-0.516-0.105-0.687c-0.257-0.174-0.451,0.011-0.608,0.205
				c-0.338,0.418-0.779,0.617-1.305,0.7c-0.372,0.058-0.73-0.001-1.094-0.017c-0.255-0.011-0.512-0.058-0.537-0.359
				c-0.026-0.308,0.22-0.372,0.475-0.421c0.965-0.187,1.873-0.519,2.667-1.113c0.318-0.238,0.62-0.507,0.693-0.926
				c0.059-0.338-0.056-0.626-0.388-0.76c-0.304-0.122-0.471,0.097-0.604,0.324c-0.598,1.021-1.566,1.498-2.644,1.823
				c-0.227,0.068-0.377,0.051-0.44-0.212c-0.054-0.228-0.196-0.221-0.386-0.137c-0.309,0.136-0.621,0.279-0.946,0.361
				c-1.023,0.257-1.654,0.756-1.506,1.95c0.067,0.544-0.544,0.833-1.016,0.542c-0.252-0.156-0.322-0.411-0.332-0.693
				c-0.045-1.283,1.025-2.41,2.382-2.479c0.463-0.023,0.782-0.191,1.12-0.539c0.268-0.275,0.853-0.116,1.171-0.482
				c0.028-0.032,0.058-0.062,0.083-0.096c0.069-0.094,0.137-0.207,0.042-0.304c-0.112-0.114-0.24-0.05-0.333,0.046
				c-0.116,0.121-0.198,0.283-0.329,0.381c-0.163,0.122-0.392,0.298-0.39-0.136c0.001-0.229-0.136-0.369-0.349-0.418
				c-0.468-0.108-0.944-0.125-1.409-0.318c-0.406-0.168-0.858,0.075-1.252,0.262c-0.423,0.202-0.842,0.172-1.277,0.091
				c-0.112-0.021-0.222-0.137-0.373-0.015c0.108,0.228,0.301,0.368,0.514,0.467c0.26,0.121,0.184,0.251,0.018,0.362
				c-0.193,0.13-0.406,0.229-0.637,0.357c0.073,0.06,0.118,0.118,0.177,0.142c0.4,0.157,0.205,0.31-0.01,0.437
				c-0.169,0.1-0.357,0.166-0.521,0.24c0.04,0.209,0.36,0.111,0.31,0.297c-0.051,0.185-0.233,0.316-0.46,0.306
				c-0.169-0.008-0.19,0.066-0.133,0.207c0.09,0.224-0.084,0.236-0.222,0.242c-0.153,0.007-0.306-0.038-0.231-0.241
				c0.067-0.183,0.008-0.214-0.162-0.211c-0.242,0.005-0.381-0.145-0.472-0.355c0.1-0.112,0.321-0.056,0.342-0.276
				c-0.235-0.05-0.471-0.114-0.64-0.288c-0.341-0.352,0.264-0.288,0.228-0.53c-0.18-0.097-0.381-0.189-0.565-0.309
				c-0.197-0.127-0.247-0.25,0.022-0.387C271.533,150.128,271.76,150.017,271.836,149.655z"/>
			<path id="XMLID_100_" style="fill:#333132;" d="M271.735,248.591c0.082-0.105,0.199-0.084,0.308-0.084
				c0.782-0.001,1.563-0.001,2.345,0c0.109,0,0.227-0.021,0.308,0.084C273.71,248.591,272.722,248.591,271.735,248.591z"/>
			<path id="XMLID_101_" style="fill:#333132;" d="M324.03,199.258c-0.118-0.095-0.083-0.229-0.083-0.35
				c-0.002-0.726-0.002-1.451,0-2.177c0-0.121-0.034-0.255,0.083-0.35C324.03,197.34,324.03,198.299,324.03,199.258z"/>
			<path id="XMLID_102_" style="fill:#333132;" d="M297.422,225.828c0.339,0.019,0.545,0.206,0.681,0.463
				c0.137,0.258,0.118,0.533-0.094,0.74c-0.4,0.393-0.824,0.761-1.234,1.145c-0.115,0.107-0.182,0.06-0.264-0.038
				c-0.246-0.289-0.498-0.571-0.746-0.857c-0.052-0.06-0.134-0.123-0.031-0.207c0.488-0.398,0.909-0.88,1.47-1.186
				C297.274,225.849,297.363,225.843,297.422,225.828z"/>
			<path id="XMLID_103_" style="fill:#333132;" d="M298.939,227.483c-0.033,0.003-0.085,0.019-0.094,0.006
				c-0.029-0.043,0.015-0.051,0.046-0.059C298.909,227.446,298.925,227.464,298.939,227.483z"/>
			<path id="XMLID_104_" style="fill:#333132;" d="M253.877,229.926c-0.012,0.587-0.562,0.964-1.038,0.719
				c-0.485-0.25-0.936-0.565-1.406-0.844c-0.149-0.088-0.147-0.177-0.046-0.293c0.009-0.01,0.015-0.024,0.023-0.035
				c0.227-0.336,0.395-0.861,0.697-0.956c0.316-0.099,0.677,0.357,1.016,0.574C253.459,229.307,253.858,229.483,253.877,229.926z"/>
			<path id="XMLID_105_" style="fill:#333132;" d="M238.788,214.036c0.036-0.044,0.08-0.064,0.123-0.02
				c0.009,0.009-0.025,0.061-0.039,0.092C238.845,214.084,238.816,214.06,238.788,214.036z"/>
			<path id="XMLID_106_" style="fill:#333132;" d="M303.202,223.142c-0.371,0.444-0.702,0.84-1.05,1.256
				c-0.388-0.671-0.759-1.314-1.182-2.046C301.749,222.628,302.447,222.875,303.202,223.142z"/>
			<path id="XMLID_107_" style="fill:#CB1100;" d="M269.398,150.503c-0.155-0.027-0.389,0.011-0.423-0.178
				c-0.036-0.2,0.187-0.217,0.334-0.212c0.164,0.006,0.393,0.022,0.418,0.208C269.751,150.496,269.539,150.479,269.398,150.503z"/>
			<path id="XMLID_108_" style="fill:#CB1100;" d="M276.277,150.104c0.151,0.009,0.337,0.012,0.344,0.174
				c0.009,0.239-0.228,0.194-0.375,0.212c-0.141,0.017-0.364,0.038-0.355-0.167C275.899,150.123,276.135,150.148,276.277,150.104z"
				/>
			<path id="XMLID_109_" style="fill:#CB1100;" d="M267.266,150.473c0.132-0.329,0.35-0.355,0.61-0.261
				c0.08,0.029,0.175,0.119,0.119,0.183C267.788,150.637,267.534,150.51,267.266,150.473z"/>
			<path id="XMLID_110_" style="fill:#CB1100;" d="M278.303,150.446c-0.072,0.091-0.178,0.069-0.27,0.074
				c-0.149,0.008-0.317,0.052-0.424-0.103c-0.049-0.071-0.002-0.136,0.062-0.173c0.168-0.097,0.344-0.13,0.508,0
				C278.238,150.291,278.319,150.343,278.303,150.446z"/>
		</g>
		<g id="XMLID_111_">
			<polygon id="XMLID_112_" style="fill:none;" points="192.305,319.153 192.305,317.872 192.305,302.512 186.115,302.512 
				186.115,317.872 186.115,319.066 185.587,320.136 179.117,333.244 199.828,333.244 192.908,320.282 			"/>
			<path id="XMLID_113_" style="fill:#333132;" d="M213.571,348.12l-16.149-30.249v-15.359h1.598c0.707,0,1.279-0.572,1.279-1.279
				v-2.585c0-0.706-0.572-1.279-1.279-1.279h-1.598h-16.423h-1.463c-0.707,0-1.279,0.573-1.279,1.279v2.585
				c0,0.707,0.572,1.279,1.279,1.279h1.463v15.36l-14.866,30.116c-3.799,5.956-1.154,10.784,5.911,10.784h35.818
				C214.926,358.772,217.482,354.002,213.571,348.12z M179.117,333.244l6.469-13.107l0.528-1.071v-1.194v-15.36h6.19v15.36v1.281
				l0.603,1.13l6.921,12.961H179.117z"/>
		</g>
	</g>
	<g id="XMLID_131_">
		<path id="XMLID_132_" style="fill:#333132;" d="M528.42,77.979h65.133c-1.17,11.44-1.561,11.831-2.73,12.09
			c-1.04,0-1.3-0.65-1.56-2.34c-0.391-1.56-2.601-5.07-23.142-5.07h-12.74c-1.95,0-2.6,1.04-2.6,2.34v28.211h15.08
			c13.391,0,17.421-0.52,17.421-4.42v-5.07h3.51v21.971h-3.51v-4.55c0-3.51-1.3-3.64-16.12-3.64h-16.381v20.801
			c0,13.391,0.26,18.331,3.64,18.331h7.41v3.9H531.67v-3.9h6.11c1.431,0,1.95-0.91,1.95-2.08V100.21
			c0-13.391-0.26-18.331-3.64-18.331h-7.671V77.979z"/>
		<path id="XMLID_134_" style="fill:#333132;" d="M635.021,125.561v-6.63c0-5.85-0.39-10.66-9.62-10.66
			c-3.25,0-7.801,1.04-10.53,3.12c0,7.02-2.86,12.09-7.28,12.09c-1.95,0-3.511-1.56-3.511-3.51c0-9.101,13.78-16.9,27.562-16.9
			c12.87,0,13.521,6.24,13.521,16.771v19.891c0,10.791,0.78,14.301,8.58,16.25l-3.9,6.63c-5.979,0-12.48-4.81-14.04-11.831
			c-5.07,5.07-13.781,11.831-21.061,11.831c-7.411,0-11.701-5.07-11.701-12.221c0-11.18,11.051-16.12,27.301-22.881L635.021,125.561
			z M635.021,129.591c-13.261,5.07-21.451,9.491-21.451,18.331c0,4.29,2.341,7.02,6.761,7.02c5.98,0,11.311-4.03,14.69-8.58V129.591
			z"/>
		<path id="XMLID_137_" style="fill:#333132;" d="M679.998,71.479v62.142c15.601-10.14,25.48-21.321,25.48-23.531
			c0-1.17-0.779-1.43-2.34-1.43h-7.41v-3.51h24.57v3.51c-4.81,0-5.33,0.39-7.67,2.47l-16.381,14.821
			c11.44,17.03,23.012,31.071,26.521,31.071h2.86v3.51h-14.951c-1.04,0-11.311-11.311-21.841-28.471l-8.84,6.24
			c0,12.48,0.13,18.721,4.03,18.721h6.24v3.51h-27.691v-3.51h4.55c1.17,0,2.73-0.52,2.73-2.08V90.72
			c0-15.601-1.04-15.601-5.33-15.601h-4.94v-3.51c3.25,0,13.65-1.56,20.411-2.73V71.479z"/>
		<path id="XMLID_139_" style="fill:#333132;" d="M790.107,162.612c-5.979-0.91-12.35-4.42-13.91-10.66
			c-6.37,5.33-13.391,10.66-19.891,10.66c-13.91,0-17.291-8.58-17.291-22.751v-15.601c0-15.601-1.04-15.601-5.33-15.601h-4.939
			v-3.51c1.949,0,6.37-0.521,10.53-1.04c4.29-0.521,8.45-1.04,9.88-1.04v36.661c0,9.23,1.04,15.86,10.141,15.86
			c6.24,0,11.83-2.99,15.99-7.15v-24.181c0-15.601-1.04-15.601-5.33-15.601h-4.94v-3.51c1.95,0,6.37-0.521,10.53-1.04
			c4.291-0.521,8.451-1.04,9.881-1.04v36.661c0,10.791,0.78,14.301,8.58,16.25L790.107,162.612z"/>
		<path id="XMLID_141_" style="fill:#333132;" d="M822.086,136.611c0,14.17,0.13,20.411,4.03,20.411h6.24v3.51h-27.691v-3.51h4.55
			c1.17,0,2.73-0.52,2.73-2.08V90.72c0-15.601-1.04-15.601-5.33-15.601h-4.94v-3.51c3.25,0,13.65-1.56,20.411-2.73V136.611z"/>
		<path id="XMLID_143_" style="fill:#333132;" d="M870.967,105.15c-0.52,2.86-0.78,3.51-2.6,3.51h-11.181v34.191
			c0,8.32,0.39,14.301,8.58,14.301c2.86,0,5.851-0.91,8.58-2.08l1.3,2.86c-4.55,2.6-11.96,4.68-14.95,4.68
			c-4.55,0-13.65-0.39-13.65-12.871V108.66c-5.98,0-6.5-0.13-6.5-0.91c0-1.04,1.17-1.95,14.561-15.73h2.08v13.131H870.967z"/>
		<path id="XMLID_145_" style="fill:#333132;" d="M930.636,152.342c-6.63,6.76-15.081,10.271-24.44,10.271
			c-16.381,0-24.831-12.871-24.831-28.081c0-14.951,8.19-31.461,25.221-31.461c12.091,0,18.2,8.19,23.011,18.46l-38.092,10.271
			c0.65,12.74,5.98,24.701,20.932,24.701c6.37,0,11.57-2.34,16.38-6.5L930.636,152.342z M918.025,120.881
			c-2.08-5.72-6.5-13.911-13.391-13.911c-8.971,0-13.131,12.741-13.131,20.931L918.025,120.881z"/>
		<path id="XMLID_148_" style="fill:#333132;" d="M969.633,105.15c-0.52,2.86-0.78,3.51-2.6,3.51h-11.181v34.191
			c0,8.32,0.39,14.301,8.58,14.301c2.86,0,5.851-0.91,8.58-2.08l1.3,2.86c-4.55,2.6-11.96,4.68-14.95,4.68
			c-4.55,0-13.65-0.39-13.65-12.871V108.66c-5.98,0-6.5-0.13-6.5-0.91c0-1.04,1.17-1.95,14.561-15.73h2.08v13.131H969.633z"/>
		<path id="XMLID_150_" style="fill:#333132;" d="M1008.111,160.532H980.42v-3.51h4.55c1.171,0,2.73-0.52,2.73-2.08v-30.681
			c0-15.601-1.04-15.601-5.33-15.601h-4.94v-3.51c1.95,0,6.37-0.521,10.53-1.04c4.29-0.521,8.45-1.04,9.881-1.04v33.541
			c0,14.17,0.13,20.411,4.03,20.411h6.24V160.532z M997.711,84.479c0,3.25-2.601,5.85-5.851,5.85s-5.851-2.6-5.851-5.85
			c0-3.38,2.601-5.851,5.851-5.851S997.711,81.099,997.711,84.479z"/>
		<path id="XMLID_153_" style="fill:#333132;" d="M1077.92,160.532h-27.691v-3.51h4.55c1.171,0,2.73-0.52,2.73-2.08v-30.681
			c0-15.601-1.04-15.601-5.33-15.601h-4.94v-3.51c1.95,0,6.37-0.521,10.53-1.04c4.29-0.521,8.45-1.04,9.881-1.04v33.541
			c0,14.17,0.13,20.411,4.03,20.411h6.24V160.532z M1067.52,84.479c0,3.25-2.601,5.85-5.851,5.85s-5.851-2.6-5.851-5.85
			c0-3.38,2.601-5.851,5.851-5.851S1067.52,81.099,1067.52,84.479z"/>
		<path id="XMLID_156_" style="fill:#333132;" d="M1129.527,95.14c0,10.53,9.75,14.041,17.94,17.031
			c16.641,6.24,24.571,11.44,24.571,25.351c0,11.311-9.881,25.481-31.331,25.481c-6.37,0-14.301-1.3-20.281-3.64
			c-1.43-8.061-1.95-10.791-1.95-11.96c0-0.91,0.521-1.56,1.561-1.56c1.3,0,1.69,1.3,1.95,2.47c1.82,7.28,13.91,10.011,20.28,10.011
			c10.4,0,21.062-5.2,21.062-16.901c0-10.01-7.541-14.43-20.411-19.111c-5.851-2.08-21.711-7.15-21.711-23.011
			c0-15.601,15.601-23.791,29.512-23.791c5.46,0,10.53,0.521,14.69,2.47c0.13,3.12,0.39,6.371,0.39,9.491
			c0,0.91-0.39,1.69-1.43,1.69c-1.301,0-1.431-1.04-1.561-1.95c-0.91-5.59-11.44-7.02-15.601-7.02
			C1138.498,80.189,1129.527,85.52,1129.527,95.14z"/>
		<path id="XMLID_158_" style="fill:#333132;" d="M1236.647,136.611c0,14.17,0.13,20.411,4.03,20.411h5.721v3.51h-27.171v-3.51h4.55
			c1.17,0,2.73-0.52,2.73-2.08v-30.681c0-11.96-4.421-14.561-10.271-14.561c-6.761,0-11.831,3.25-16.641,7.41v19.501
			c0,14.17,0.13,20.411,4.03,20.411h5.46v3.51h-26.911v-3.51h4.55c1.171,0,2.73-0.52,2.73-2.08V90.72
			c0-15.601-1.04-15.601-5.33-15.601h-4.94v-3.51c3.25,0,13.65-1.56,20.411-2.73v43.941c6.63-4.94,12.48-9.75,21.32-9.75
			c13.521,0,15.73,8.84,15.73,18.46V136.611z"/>
		<path id="XMLID_160_" style="fill:#333132;" d="M1271.877,71.479v62.142c15.601-10.14,25.48-21.321,25.48-23.531
			c0-1.17-0.779-1.43-2.34-1.43h-7.41v-3.51h24.57v3.51c-4.81,0-5.33,0.39-7.67,2.47l-16.381,14.821
			c11.44,17.03,23.012,31.071,26.521,31.071h2.86v3.51h-14.951c-1.04,0-11.311-11.311-21.841-28.471l-8.84,6.24
			c0,12.48,0.13,18.721,4.03,18.721h6.24v3.51h-27.691v-3.51h4.55c1.17,0,2.73-0.52,2.73-2.08V90.72
			c0-15.601-1.04-15.601-5.33-15.601h-4.94v-3.51c3.25,0,13.65-1.56,20.411-2.73V71.479z"/>
		<path id="XMLID_162_" style="fill:#333132;" d="M1373.146,152.342c-6.63,6.76-15.08,10.271-24.441,10.271
			c-16.38,0-24.83-12.871-24.83-28.081c0-14.951,8.189-31.461,25.221-31.461c12.09,0,18.2,8.19,23.011,18.46l-38.092,10.271
			c0.65,12.74,5.98,24.701,20.931,24.701c6.371,0,11.571-2.34,16.381-6.5L1373.146,152.342z M1360.536,120.881
			c-2.08-5.72-6.5-13.911-13.391-13.911c-8.971,0-13.131,12.741-13.131,20.931L1360.536,120.881z"/>
		<path id="XMLID_165_" style="fill:#333132;" d="M1436.454,136.611c0,14.17,0.13,20.411,4.03,20.411h5.721v3.51h-27.171v-3.51h4.55
			c1.17,0,2.73-0.52,2.73-2.08v-30.681c0-11.96-4.421-14.561-10.271-14.561c-6.761,0-11.831,3.25-16.641,7.41v19.501
			c0,14.17,0.13,20.411,4.03,20.411h5.72v3.51h-27.171v-3.51h4.55c1.171,0,2.73-0.52,2.73-2.08v-30.681
			c0-15.601-1.04-15.601-5.33-15.601h-4.94v-3.51c1.95,0,6.37-0.521,10.53-1.04c4.29-0.521,8.45-1.04,9.881-1.04v9.75
			c6.63-4.94,12.48-9.75,21.32-9.75c13.521,0,15.73,8.84,15.73,18.46V136.611z"/>
		<path id="XMLID_167_" style="fill:#333132;" d="M1502.885,153.122c-5.721,6.37-14.171,9.49-22.621,9.49
			c-16.771,0-26.391-12.351-26.391-28.601c0-10.4,6.76-30.941,29.511-30.941c9.101,0,17.551,6.63,17.551,12.22
			c0,2.21-1.82,3.77-4.03,3.77c-5.07,0-8.32-6.63-8.971-11.05c-1.56-1.04-3.64-1.43-5.59-1.43c-13,0-18.331,13-18.331,24.181
			c0,13.911,6.891,25.741,22.102,25.741c5.46,0,10.79-2.08,14.95-5.72L1502.885,153.122z"/>
		<path id="XMLID_169_" style="fill:#333132;" d="M1542.142,125.561v-6.63c0-5.85-0.39-10.66-9.62-10.66
			c-3.25,0-7.801,1.04-10.53,3.12c0,7.02-2.86,12.09-7.28,12.09c-1.95,0-3.511-1.56-3.511-3.51c0-9.101,13.78-16.9,27.562-16.9
			c12.87,0,13.521,6.24,13.521,16.771v19.891c0,10.791,0.78,14.301,8.58,16.25l-3.9,6.63c-5.979,0-12.48-4.81-14.04-11.831
			c-5.07,5.07-13.781,11.831-21.061,11.831c-7.411,0-11.701-5.07-11.701-12.221c0-11.18,11.051-16.12,27.301-22.881
			L1542.142,125.561z M1542.142,129.591c-13.261,5.07-21.451,9.491-21.451,18.331c0,4.29,2.341,7.02,6.761,7.02
			c5.98,0,11.311-4.03,14.69-8.58V129.591z"/>
		<path id="XMLID_172_" style="fill:#333132;" d="M1625.08,108.66c-4.81,0-5.72,0-6.76,2.21l-22.102,50.572
			c-0.39,0.91-0.909,1.56-1.56,1.56c-0.78,0-1.04-0.39-1.69-1.82c-21.841-52.522-22.75-52.522-24.83-52.522h-3.771v-3.51h26.131
			v3.51h-5.851c-0.779,0-2.08,0-2.08,1.17c0,1.17,2.73,7.67,15.601,38.222c10.791-24.701,13.651-33.801,13.651-37.051
			c0-2.08-1.041-2.34-2.73-2.34h-6.11v-3.51h22.101V108.66z"/>
		<path id="XMLID_174_" style="fill:#333132;" d="M1681.108,152.342c-6.63,6.76-15.081,10.271-24.44,10.271
			c-16.381,0-24.831-12.871-24.831-28.081c0-14.951,8.19-31.461,25.221-31.461c12.091,0,18.2,8.19,23.011,18.46l-38.092,10.271
			c0.65,12.74,5.98,24.701,20.932,24.701c6.37,0,11.57-2.34,16.38-6.5L1681.108,152.342z M1668.498,120.881
			c-2.08-5.72-6.5-13.911-13.391-13.911c-8.971,0-13.131,12.741-13.131,20.931L1668.498,120.881z"/>
		<path id="XMLID_177_" style="fill:#CB1100;" d="M569.242,294.301c0,13.391,0.26,18.331,3.64,18.331h10.011v3.9h-36.401v-3.9h9.75
			c1.43,0,1.95-0.91,1.95-2.08v-71.893h-3.25c-15.211,0-22.621,2.73-23.921,6.63c-0.261,0.78-0.78,1.82-1.82,1.82
			c-0.78,0-1.43-0.39-1.43-1.3c0-0.78,1.819-6.5,3.64-11.831h64.612c1.82,5.331,3.641,11.051,3.641,11.831
			c0,0.91-0.65,1.3-1.431,1.3c-1.04,0-1.56-1.04-1.819-1.82c-1.301-3.899-8.711-6.63-23.921-6.63h-3.25V294.301z"/>
		<path id="XMLID_179_" style="fill:#CB1100;" d="M650.751,308.342c-6.63,6.76-15.081,10.271-24.44,10.271
			c-16.381,0-24.831-12.871-24.831-28.081c0-14.951,8.19-31.461,25.221-31.461c12.091,0,18.2,8.189,23.011,18.46l-38.092,10.271
			c0.65,12.74,5.98,24.701,20.932,24.701c6.37,0,11.57-2.34,16.38-6.5L650.751,308.342z M638.141,276.881
			c-2.08-5.721-6.5-13.911-13.391-13.911c-8.971,0-13.131,12.741-13.131,20.931L638.141,276.881z M612.27,245.81
			c0-2.73,2.08-4.811,4.811-4.811c2.729,0,4.81,2.08,4.81,4.811c0,2.729-2.08,4.81-4.81,4.81
			C614.35,250.619,612.27,248.539,612.27,245.81z M627.22,245.81c0-2.73,2.08-4.811,4.811-4.811s4.811,2.08,4.811,4.811
			c0,2.729-2.08,4.81-4.811,4.81S627.22,248.539,627.22,245.81z"/>
		<path id="XMLID_184_" style="fill:#CB1100;" d="M763.328,298.331h0.261v-46.802c0-5.979-0.261-13.65-4.16-13.65h-6.891v-3.9
			h23.791v3.9h-4.811c-1.56,0-2.99,0.65-2.99,2.601v75.143c0,1.17-0.13,2.08-1.04,2.08c-0.39,0-0.91-0.39-1.819-1.43l-1.561-1.82
			l-56.292-67.862h-0.26v52.392c0,5.98,0.26,13.65,4.16,13.65h6.89v3.9h-23.79v-3.9h4.81c1.561,0,2.99-0.65,2.99-2.6V252.83
			c0-10.531-1.17-14.951-7.28-14.951h-4.03v-3.9h18.851L763.328,298.331z"/>
		<path id="XMLID_186_" style="fill:#CB1100;" d="M819.747,281.561v-6.63c0-5.851-0.39-10.66-9.62-10.66
			c-3.25,0-7.801,1.04-10.53,3.12c0,7.02-2.86,12.09-7.28,12.09c-1.95,0-3.511-1.56-3.511-3.51c0-9.101,13.78-16.9,27.562-16.9
			c12.87,0,13.521,6.24,13.521,16.771v19.891c0,10.79,0.78,14.301,8.58,16.25l-3.9,6.631c-5.979,0-12.48-4.811-14.04-11.831
			c-5.07,5.07-13.781,11.831-21.061,11.831c-7.411,0-11.701-5.07-11.701-12.221c0-11.181,11.051-16.12,27.301-22.881
			L819.747,281.561z M819.747,285.591c-13.261,5.07-21.451,9.49-21.451,18.331c0,4.29,2.341,7.02,6.761,7.02
			c5.98,0,11.311-4.029,14.69-8.58V285.591z"/>
		<path id="XMLID_189_" style="fill:#CB1100;" d="M877.465,261.15c-0.52,2.859-0.78,3.51-2.6,3.51h-11.181v34.191
			c0,8.32,0.39,14.301,8.58,14.301c2.86,0,5.851-0.91,8.58-2.08l1.3,2.859c-4.55,2.601-11.96,4.681-14.95,4.681
			c-4.55,0-13.65-0.391-13.65-12.871V264.66c-5.98,0-6.5-0.13-6.5-0.91c0-1.04,1.17-1.95,14.561-15.73h2.08v13.131H877.465z"/>
		<path id="XMLID_191_" style="fill:#CB1100;" d="M908.272,264.66h-6.63c-0.521,0-1.04,0.13-1.04,0.78
			c0,1.17,10.271,24.7,16.381,38.741c9.49-20.021,14.17-33.671,14.17-37.701c0-1.69-1.56-1.82-3.25-1.82h-5.851v-3.51h22.231v3.51
			h-4.55c-1.431,0-1.95,0.91-2.601,2.47c-4.681,12.091-21.061,48.103-35.751,79.823c-4.421,1.17-9.23,1.82-13.911,1.82
			c-0.91,0-1.56-0.391-1.56-1.431c0-2.08,5.33-2.21,10.141-7.02c5.72-5.721,10.01-13.261,15.34-24.701
			c-13.91-31.722-16.9-38.352-20.541-46.021c-2.34-4.94-3.25-4.94-8.189-4.94v-3.51h25.61V264.66z"/>
		<path id="XMLID_193_" style="fill:#CB1100;" d="M968.201,292.611c0,14.17,0.13,20.41,4.03,20.41h6.24v3.511H950.78v-3.511h4.55
			c1.17,0,2.73-0.52,2.73-2.08v-30.681c0-15.601-1.04-15.601-5.33-15.601h-4.94v-3.51c1.95,0,6.37-0.521,10.53-1.04
			c4.29-0.521,8.45-1.04,9.881-1.04v11.31c5.2-5.46,11.18-11.31,16.771-11.31c2.34,0,4.81,0.909,6.37,2.729
			c-1.69,9.881-1.82,10.141-2.99,10.141c-1.95,0-0.78-4.16-7.67-4.16c-5.33,0-9.23,3.64-12.48,7.15V292.611z"/>
		<path id="XMLID_195_" style="fill:#CB1100;" d="M1045.163,308.342c-6.63,6.76-15.081,10.271-24.44,10.271
			c-16.381,0-24.831-12.871-24.831-28.081c0-14.951,8.19-31.461,25.221-31.461c12.091,0,18.2,8.189,23.011,18.46l-38.092,10.271
			c0.65,12.74,5.98,24.701,20.932,24.701c6.37,0,11.57-2.34,16.38-6.5L1045.163,308.342z M1032.553,276.881
			c-2.08-5.721-6.5-13.911-13.391-13.911c-8.971,0-13.131,12.741-13.131,20.931L1032.553,276.881z M1006.682,245.81
			c0-2.73,2.08-4.811,4.811-4.811c2.729,0,4.81,2.08,4.81,4.811c0,2.729-2.08,4.81-4.81,4.81
			C1008.762,250.619,1006.682,248.539,1006.682,245.81z M1021.632,245.81c0-2.73,2.08-4.811,4.811-4.811s4.811,2.08,4.811,4.811
			c0,2.729-2.08,4.81-4.811,4.81S1021.632,248.539,1021.632,245.81z"/>
		<path id="XMLID_200_" style="fill:#CB1100;" d="M1068.43,318.612c-5.2,0-10.53-0.78-15.471-2.601
			c-0.91-5.72-1.561-9.49-1.561-10.53c0-1.56,0.521-1.95,1.431-1.95c1.04,0,1.56,0.91,1.82,2.08
			c1.689,5.851,10.66,8.711,15.86,8.711c7.021,0,15.211-3.25,15.211-11.961c0-13.261-32.762-5.46-32.762-25.871
			c0-6.24,5.2-17.42,23.4-17.42c4.16,0,9.621,0.909,13.781,2.859c0.39,3.9,0.779,7.28,0.779,8.32c0,1.301-0.26,1.82-1.17,1.82
			c-1.04,0-1.3-0.65-1.689-1.43c-2.21-4.94-8.971-7.28-13.911-7.28c-5.46,0-13.13,2.99-13.13,9.62
			c0,13.131,33.541,6.11,33.541,26.781C1094.561,313.412,1079.87,318.612,1068.43,318.612z"/>
	</g>
</g>
</svg>
